<svg width="377" height="262" viewBox="0 0 377 262" fill="none" xmlns="http://www.w3.org/2000/svg">
        <g id="Signature">
            <g id="Group 2">
                <path id="line7"
                    d="M313.5 37C313 40 313 43.2154 313 46.5C313 49 313 48.9612 313 51.5C313 54.4824 313 57.0176 313 60C313 67.4031 313 74.6832 313 82C313 89.8709 313.5 97.6291 313.5 105.5C313.5 109.45 314 113.103 314 117C314 121.179 314.922 125.593 314.922 129.656C314.922 137.45 315.5 144.5 316 152.5C316.5 156 316.5 159.5 316.738 163.562C316.738 165.78 317.367 169 317.411 170.5C317.456 172 317.411 173.227 317.411 174.5C317.411 175.869 317.411 176.5 317.5 178.5C317.855 186.5 318.5 192 318.5 199.5C319 208.5 318.5 217.5 318 226.5"
                    stroke="black" stroke-width="3" stroke-linecap="round" />
                <path id="line8"
                    d="M332.5 44.5C331.5 52 332.5 58.5 332.5 68C332.5 76.0007 333 83.6386 333 91.5C333 97.8572 333 104.643 333 111C333 115.076 333 118.862 333 123C333 126.431 333 129.569 333 133C333 137.474 333 142.026 333 146.5C333 148.93 333 150.031 333 152.5C333 154.574 333 156.926 333 159C333 169.759 332.5 178.5 333 189.5C333.085 191.376 333 193.5 333 198C333 202.5 333 202.5 333.5 209.5C333.821 214 334 216 334 220C334 223.523 334.383 225.713 334.5 230.5C334.598 234.5 334.902 236.233 334.902 239.546"
                    stroke="black" stroke-width="3" stroke-linecap="round" />
                <path id="line9"
                    d="M346.06 124.82C346.612 123.957 346.646 123.648 347.428 122.949C347.641 122.655 348.34 122.279 348.55 122.123C348.763 121.965 348.991 121.877 349.234 121.892C349.475 121.908 349.697 122.023 349.903 122.202C350.109 122.38 350.315 122.633 350.527 122.949C351.497 124.421 352.344 126.005 352.627 127.786C352.675 128.023 352.711 128.301 352.705 128.577C352.699 128.853 352.649 129.145 352.511 129.392C351.682 130.858 350.802 132.333 349.831 133.713C349.167 134.61 348.175 135.375 346.859 135.123C345.495 134.872 344.861 133.761 344.532 132.594C343.687 129.741 344.208 127.084 345.133 124.46L345.183 124.319C345.184 124.317 345.185 124.316 345.187 124.316"
                    stroke="black" stroke-width="3" stroke-linecap="round" stroke-linejoin="round" />
                <path id="line4"
                    d="M170.731 144.938C170.875 145.013 171.669 145.262 171.811 145.314C171.958 145.367 172.552 145.336 172.626 145.314L173.443 145.184L173.829 144.965L174.176 144.649L174.177 144.644L174.257 144.552C176.061 142.474 176.504 140.07 177 137.5C177 137.5 176.933 134.975 176.5 133.5C176.357 133.013 176.276 132.936 176.138 132.5C175.845 131.574 175.159 131.26 175.03 131.271C174.656 131.304 174.392 131.481 174.169 131.732C173.988 131.937 173.706 132.334 173.468 133.414C172.798 136.453 172.505 139.113 172.959 142.203C173.024 142.547 173.032 142.785 173.077 143.18L173.182 143.921L173.203 144.644L173.443 145.719C173.752 146.109 173.906 146.282 174.126 146.585C174.836 147.179 175.422 147.281 176.386 147.179C177.182 147.086 177.572 146.695 178.109 146.428C178.839 145.894 179.332 145.314 180.113 144.649C180.7 144.161 181.133 143.757 181.286 143.57"
                    stroke="black" stroke-width="3" stroke-linecap="round" stroke-linejoin="round" />
                <path id="line1"
                    d="M44.5463 14.5207C44.2729 16.6288 43.9992 18.7392 43.6863 20.8109C43.5685 21.6785 43.4175 22.5477 43.2672 23.4123C43.2172 23.6996 43.1674 23.9864 43.1188 24.2726C42.9236 25.4236 42.7491 26.5685 42.6716 27.7108C42.3984 31.6113 42.3203 35.4735 42.2421 39.3802C42.125 45.5828 42.3982 51.7458 43.1007 57.9086C43.3036 59.6614 43.4902 61.412 43.6765 63.1596C43.9932 66.1313 44.3091 69.0945 44.7027 72.0452C45.0933 74.9921 45.5426 77.931 45.9921 80.8706C46.4415 83.809 46.8911 86.7495 47.2821 89.7002C47.9469 94.624 48.4945 99.5893 49.0416 104.549C49.4326 108.339 49.7846 112.132 50.0584 115.962C50.254 119.051 50.3714 122.143 50.4105 125.271C50.4105 126.584 50.3399 127.919 50.27 129.241C50.2356 129.89 50.2015 130.537 50.1759 131.176C50.0194 135.515 49.7456 139.817 49.2367 144.12C48.7274 148.584 47.8265 152.928 46.8098 157.266C46.1828 159.929 45.3593 162.555 44.5393 165.17C44.399 165.619 44.2609 166.126 44.1346 166.591C44.0041 167.07 43.8712 167.556 43.7183 168.037C43.4127 168.997 43.0245 169.946 42.4027 170.809C42.2813 170.985 42.1595 171.168 42.0369 171.352C41.7333 171.807 41.4213 172.275 41.0768 172.707C40.589 173.319 40.0229 173.878 39.2882 174.265C36.9345 175.541 34.3497 175.695 31.75 175.381C29.1423 175.099 27.2262 173.535 25.4662 171.893C24.5245 171.03 23.5695 170.038 22.9294 168.919C20.6427 164.979 19.7396 160.611 19.4649 156.141C19.191 152.191 19.1122 148.192 19.6225 144.19C19.7371 143.331 19.8363 142.468 19.9356 141.605C20.1055 140.127 20.2756 138.647 20.5226 137.191C20.6701 136.343 20.8777 135.505 21.0833 134.675L21.1263 134.502C21.3463 133.613 21.5592 132.731 21.6945 131.843C21.9725 130.057 22.6469 128.474 23.3505 126.911C24.0367 125.378 25.2084 124.331 26.6928 123.689C27.6181 123.287 28.6973 123.089 29.6862 123.01C32.8864 122.773 35.8787 123.405 38.2751 125.68C39.2336 126.601 40.0817 127.815 40.843 128.904C40.881 128.959 40.9198 129.014 40.9577 129.068C43.4704 132.718 45.3553 136.681 46.5727 140.92C47.2016 143.08 47.5672 145.356 46.7249 147.641C46.5166 148.176 46.401 148.759 46.2847 149.349C46.2526 149.511 46.2204 149.674 46.186 149.838C46.1463 150.056 46.1236 150.198 46.1236 150.301C46.1236 150.396 46.1434 150.423 46.1603 150.44M44.5463 14.5207C44.5421 14.5509 44.5506 14.4908 44.5463 14.5207ZM44.5463 14.5207C44.5816 14.2701 44.6309 13.921 44.6959 13.6923C44.7624 13.4951 44.8636 13.3712 44.9876 13.2969"
                    stroke="black" stroke-width="3" stroke-linecap="round" stroke-linejoin="round" />
                <path id="line2"
                    d="M54.4319 146.5C54.2217 146.556 52.477 147.204 52.0864 147.281C52.0929 147.437 52.2011 147.517 52.4446 147.647C53.8455 147.867 55.0586 148.377 56.3865 148.453C57.1292 148.492 57.991 148.404 58.732 148.453C59.4749 148.502 60.5318 148.609 61.273 148.648C63.6575 148.805 65.5363 148.922 67.9187 149.039C69.8701 149.117 71.6382 149.078 73.5871 149.039C74.8266 149.004 75.6667 148.92 76.9099 148.844H78.2782C79.6462 148.761 80.619 148.863 81.9919 148.844C83.3464 148.824 84.7476 148.785 86.0966 148.844C86.3219 148.854 87.4353 148.834 87.6603 148.844C88.7834 148.894 89.0813 148.828 90.2013 148.844C91.9243 148.844 92.9617 148.879 94.6969 148.844C95.5567 148.827 96.9687 148.857 97.8243 148.844C99.9932 148.824 102.115 148.873 104.275 148.844C106.434 148.814 108.751 148.668 110.92 148.648C112.333 148.635 113.605 148.666 115.025 148.648C117.883 148.614 120.778 148.648 123.625 148.648C126.124 148.632 128.558 148.644 131.053 148.648C134.378 148.655 137.693 148.693 141.021 148.648C144.693 148.621 148.305 148.385 151.967 148.258C153.447 148.206 154.977 148.107 156.463 148.062C157.673 148.023 158.979 147.916 160.176 147.867C161.347 147.819 162.723 147.71 163.89 147.672C164.356 147.646 164.934 147.663 165.454 147.672C165.725 147.676 165.879 147.672 166.169 147.672H166.627H167.604C168.442 147.672 169.729 147.691 170.536 147.672C171.326 147.653 171.721 147.672 172.49 147.672C174.047 147.672 175.444 147.842 176.986 147.867C179.291 147.905 181.704 147.829 184.023 147.782C186.401 147.718 188.098 147.675 190.473 147.477C190.746 147.454 191.648 147.284 192.037 147.086C192.425 146.888 192.583 146.714 192.818 146.695M-nan -nanL-nan -nan"
                    stroke="black" stroke-width="3" stroke-linecap="round" stroke-linejoin="round" />
                <path id="line3"
                    d="M162.717 46.5C162.717 47.0859 162.717 47.6719 162.717 47.6719C162.522 48.8438 162.569 48.4083 162.522 48.8438C162.357 50.3603 162.131 51.438 162.131 52.9453C162.155 55.2424 162.421 57.4733 162.522 59.7813C162.582 61.1603 162.673 62.5065 162.717 63.8828C162.776 65.7773 162.678 67.6537 162.717 69.5469C162.756 71.4404 162.854 73.3187 162.913 75.211C162.964 76.9915 163.022 78.715 163.108 80.4844C163.152 81.3913 163.264 82.1091 163.304 83.0235C163.323 83.5331 163.294 84.2837 163.304 84.7813C163.314 85.2792 163.284 85.8384 163.304 86.3438C163.362 87.6499 163.421 88.9324 163.499 90.25C163.577 91.5674 163.636 92.8469 163.695 94.1563C163.729 95.1707 163.683 96.2774 163.695 97.2813C163.71 98.6147 163.823 99.8482 163.89 101.188C163.948 102.422 164.184 103.646 164.281 104.898C164.379 106.162 164.418 107.532 164.477 108.805C164.555 110.394 164.57 111.903 164.613 113.492C164.635 114.286 164.587 116.606 164.613 117.398C164.691 119.819 165.121 122.076 164.867 123.844C164.974 126.578 165.171 128.879 165.063 130.875C165.102 132.018 165.224 132.863 165.258 134C165.328 136.316 165.349 138.509 165.454 140.836C165.493 141.576 165.6 142.438 165.649 143.18C165.698 143.919 165.61 143.806 165.649 144.547C165.665 144.845 165.874 145.941 165.845 146.109V146.695V147.672V149.039C165.962 151.381 166.118 152.471 166.04 154.703V155.484C166.154 158.774 165.927 162.074 166.078 165.36C166.313 169.734 166.547 174.067 166.86 178.439C166.992 180.367 167.16 182.315 167.328 184.255C167.408 185.181 167.487 186.107 167.563 187.029C167.719 188.882 167.896 190.751 168.072 192.615C168.247 194.479 168.423 196.343 168.579 198.198C168.66 199.16 168.735 200.126 168.811 201.093C168.957 202.955 169.103 204.824 169.283 206.673C169.361 207.673 169.478 208.67 169.594 209.666C169.622 209.909 169.65 210.153 169.678 210.396C169.82 211.637 169.948 212.884 169.987 214.142C170.071 217.212 170.055 220.266 170.039 223.323C170.033 224.546 170.026 225.769 170.026 226.996C170.026 227.35 170.053 227.732 170.085 228.172C170.086 228.175 170.089 228.176 170.091 228.175M-nan -nanL-nan -nan"
                    stroke="black" stroke-width="3" stroke-linecap="round" stroke-linejoin="round" />
                <path id="line5"
                    d="M222.138 250.602C222.321 250.345 222.612 249.924 222.724 249.625C222.882 249.256 222.942 249.018 223.098 248.648C223.635 247.38 224.087 246.266 224.694 245.022C225.863 242.644 226.912 240.429 227.611 237.906C229.051 232.766 230.074 227.814 230.074 222.482C230.074 219.436 229.991 216.733 229.957 213.688C229.939 212.165 229.97 211.109 229.957 209.586C229.918 208.615 229.888 207.263 229.81 206.288C229.712 205.294 229.557 203.951 229.45 202.945C229.343 201.941 229.076 199.644 228.979 198.648C228.823 197.223 228.698 197.348 228.552 195.914C228.405 194.479 228.357 193.042 228.201 191.617C228.163 191.285 228.035 189.796 228.002 189.469C227.931 188.786 227.52 186.805 227.415 186.148C226.751 181.736 226.554 179.273 225.851 174.82C225.57 173.075 225.554 172.645 225.292 170.914L224.679 167.398C224.405 165.597 223.799 162.162 223.506 160.367L222.529 154.508L221.706 149.234C221.646 148.913 221.215 147.014 221.16 146.695C220.96 145.534 220.742 144.864 220.379 143.773C219.597 142.203 219.651 141.991 218.623 141.285C217.606 140.588 217.251 140.623 215.641 141.285C214.333 141.824 212.5 143 211.5 145C211.336 145.232 211.32 145.731 211.211 145.968C211.134 146.154 211.17 146.259 211.224 146.319C211.289 146.392 211.424 146.453 211.629 146.453C211.994 146.453 212.345 146.39 212.486 146.135C212.951 145.292 213.271 144.5 213.5 143.773C214 142.184 214.17 140.604 214.402 140.25C214.505 139.682 214.61 138.864 214.706 138.297C214.897 137.157 215.035 135.943 215.297 134.767C215.883 130.68 216.075 129.514 216.309 125.53C216.344 124.996 216.579 122.735 216.309 122.195C216.108 121.83 215.885 121.628 215.641 121.546C215.397 121.463 215.092 121.489 214.706 121.654C214.06 121.92 213.442 122.61 212.951 123.062C212.314 123.649 211.796 124.361 211.192 125.016C210.875 125.36 210.401 126.029 210.061 126.383L209.321 127.555L208.26 129.703C207.869 131.07 208.26 130 207.5 131.5C207.027 132.281 206.872 132.983 206.69 133.638L207 134.5H207.5L208 133.5L208.26 132.5V131.253L208.607 129L209.321 126.383L210.061 123.062"
                    stroke="black" stroke-width="3" stroke-linecap="round" stroke-linejoin="round" />
                <path id="line6"
                    d="M357.788 149.625C358.57 150.016 358.179 149.82 358.96 150.211C359.567 150.514 359.121 150.622 358.765 150.797C358.595 150.881 357.631 150.992 357.397 150.992C354.591 151.187 353.753 151.188 350.947 151.383C349.933 151.461 348.794 151.592 347.819 151.553C343.454 151.397 339.126 151.397 334.761 151.202L331.994 151.01C331.994 151.008 331.992 151.007 331.99 151.007C327.004 150.656 322.017 150.344 316.875 149.994C316.873 149.993 316.871 149.995 316.871 149.998L315.568 150.016C315.177 149.993 314.843 149.993 314.532 149.993C311.843 149.915 309.153 149.837 306.464 149.759C303.697 149.681 300.929 149.642 298.123 149.564C292.432 149.408 286.703 149.253 281.012 149.175C277.543 149.136 274.113 149.214 270.645 149.292C268.15 149.369 265.656 149.603 263.161 149.72C260.043 149.876 256.925 150.071 253.807 150.11C251 150.149 248.155 150.032 245.349 150.032C243.634 150.032 241.88 150.071 240.165 150.032C237.437 149.954 234.639 149.625 231.911 149.43C230.976 149.352 230.538 149.408 229.565 149.175"
                    stroke="black" stroke-width="3" stroke-linecap="round" stroke-linejoin="round" />
            </g>
        </g>

        <defs>
        <style>
        /*
* Prefixed by:
* PostCSS: v7.0.29,
* Autoprefixer: v9.7.6
* Browsers: last 4 version
*/

@-webkit-keyframes line1 {
    0%, 25%  {
        opacity:1;
        stroke-dashoffset: 270.43;
    }
    90% {
        stroke-dashoffset: 0;
    }
    100%{
        opacity:1;
    }
}

@keyframes line1 {
    0%, 25%  {
        opacity:1;
        stroke-dashoffset: 270.43;
    }
    90% {
        stroke-dashoffset: 0;
    }
    100%{
        opacity:1;
    }
}

@-webkit-keyframes line2 {
    0%, 25%  {
        stroke-dashoffset:  143.69;
        opacity:1;
    }
    90% {
        stroke-dashoffset: 0;
    }
    100%{
        opacity:1;
    }
}

@keyframes line2 {
    0%, 25%  {
        stroke-dashoffset:  143.69;
        opacity:1;
    }
    90% {
        stroke-dashoffset: 0;
    }
    100%{
        opacity:1;
    }
}

@-webkit-keyframes line3 {
    0%, 25%  {
        stroke-dashoffset:  182.16;
        opacity:1;
    }
    90% {
        stroke-dashoffset: 0;
    }
    100%{
        opacity:1;
    }
}

@keyframes line3 {
    0%, 25%  {
        stroke-dashoffset:  182.16;
        opacity:1;
    }
    90% {
        stroke-dashoffset: 0;
    }
    100%{
        opacity:1;
    }
}

@-webkit-keyframes line4 {
    0%, 25%  {
        stroke-dashoffset:  43.65;
        opacity:1;
    }
    90% {
        stroke-dashoffset: 0;
    }
    100%{
        opacity:1;
    }
}

@keyframes line4 {
    0%, 25%  {
        stroke-dashoffset:  43.65;
        opacity:1;
    }
    90% {
        stroke-dashoffset: 0;
    }
    100%{
        opacity:1;
    }
}

@-webkit-keyframes line5 {
    0%, 25%  {
        stroke-dashoffset:  -182;
        opacity:1;
    }
    90% {
        stroke-dashoffset: 0;
    }
    100%{
        opacity:1;
    }
}

@keyframes line5 {
    0%, 25%  {
        stroke-dashoffset:  -182;
        opacity:1;
    }
    90% {
        stroke-dashoffset: 0;
    }
    100%{
        opacity:1;
    }
}

@-webkit-keyframes line6 {
    0%, 25%  {
        stroke-dashoffset: -131.69;
        opacity:1;
    }
    90% {
        stroke-dashoffset: 0;
    }
    100%{
        opacity:1;
    }
}

@keyframes line6 {
    0%, 25%  {
        stroke-dashoffset: -131.69;
        opacity:1;
    }
    90% {
        stroke-dashoffset: 0;
    }
    100%{
        opacity:1;
    }
}

@-webkit-keyframes line7 {
    0%, 25%  {
        stroke-dashoffset:  190;
        opacity:1;
    }
    90% {
        stroke-dashoffset: 0;
    }
    100%{
        opacity:1;
    }
}

@keyframes line7 {
    0%, 25%  {
        stroke-dashoffset:  190;
        opacity:1;
    }
    90% {
        stroke-dashoffset: 0;
    }
    100%{
        opacity:1;
    }
}

@-webkit-keyframes line8 {
    0%, 25%  {
        stroke-dashoffset:  195.39;
        opacity:1;
    }
    90% {
        stroke-dashoffset: 0;
    }
    100%{
        opacity:1;
    }
}

@keyframes line8 {
    0%, 25%  {
        stroke-dashoffset:  195.39;
        opacity:1;
    }
    90% {
        stroke-dashoffset: 0;
    }
    100%{
        opacity:1;
    }
}

@-webkit-keyframes line9 {
    0%, 25%  {
        stroke-dashoffset:  -33.82;
        opacity:1;
    }
    90% {
        stroke-dashoffset: 0;
    }
    100%{
        opacity:1;
    }
}

@keyframes line9 {
    0%, 25%  {
        stroke-dashoffset:  -33.82;
        opacity:1;
    }
    90% {
        stroke-dashoffset: 0;
    }
    100%{
        opacity:1;
    }
}


/*
* Prefixed by:
* PostCSS: v7.0.29,
* Autoprefixer: v9.7.6
* Browsers: last 4 version
*/

#Signature path{
    fill: none;
    stroke: #000000;
    stroke-width: 3;
    stroke-linecap: round;
    stroke-linejoin: round;
    stroke-miterlimit: 10;
    opacity:0;
  }
  
  #line1{
      stroke-dasharray: 270.43;
      -webkit-animation: line1 0.35s 0s ease-in-out forwards;
              animation: line1 0.35s 0s ease-in-out forwards;
  }
  #line2{
      stroke-dasharray: 143.69;
      -webkit-animation: line2 0.25s 0.40s ease-in-out forwards;
              animation: line2 0.25s 0.40s ease-in-out forwards;
  }
  #line3{
      stroke-dasharray: 182.16;
      -webkit-animation: line3 0.25s 0.75s ease-in-out forwards;
              animation: line3 0.25s 0.75s ease-in-out forwards;
  }
  #line4{
      stroke-dasharray: 43.65;
      -webkit-animation: line4 0.5s 1s ease-in-out forwards;
              animation: line4 0.5s 1s ease-in-out forwards;
  }
  #line5{
      stroke-dasharray: 182;
      -webkit-animation: line5 0.85s 1.25s ease-in-out forwards;
              animation: line5 0.85s 1.25s ease-in-out forwards;
  }
  #line6{
      stroke-dasharray: 131.69;
      -webkit-animation: line6 0.25s 2.00s ease-in-out forwards;
              animation: line6 0.25s 2.00s ease-in-out forwards;
  }
  #line7{
      stroke-dasharray: 190;
      -webkit-animation: line7 0.25s 2.35s ease-in-out forwards;
              animation: line7 0.25s 2.35s ease-in-out forwards;
  }
  #line8{
      stroke-dasharray: 195.39;
      -webkit-animation: line8 0.25s 2.55s ease-in-out forwards;
              animation: line8 0.25s 2.55s ease-in-out forwards;
  }
  #line9{
      stroke-dasharray: 33.82;
      -webkit-animation: line9 0.5s 2.75s ease-in-out forwards;
              animation: line9 0.5s 2.75s ease-in-out forwards;
  }
        </style>
        </defs>
    </svg>